# xmcd
#
# Track frame offsets: 
#        150
#        12871
#        28549
#        42274
#        59272
#        72707
#        89523
#        105413
#        122067
#        138731
#        156430
#        173292
#        187837
#        202744
#        218726
#        234846
#        250699
#        263596
#        279421
#        295037
#
# Disc length: 4144 seconds
#
# Revision: 1
# Processed by: cddbd v1.5.2PL0 Copyright (c) Steve Scherf et al.
# Submitted via: ExactAudioCopy v0.99pb5
#
DISCID=0d102e14
DTITLE=Various Artist - Doppelt Gut - Folge 37 (3-2010) - CD 1
DYEAR=2010
DGENRE=Schlager
TTITLE0=Michelle - Gefallener Engel
TTITLE1=Andreas Martin - Aber dich gibt's nur einmal für mich
TTITLE2=Diana Sorbello - Mamma Maria
TTITLE3=Christian Franke - Wenn du jetzt gehst (fallen nie Tränen)
TTITLE4=Ireen Sheer - Männer wollen alle das Eine
TTITLE5=Jörg Bausch - Wie ein Blitz
TTITLE6=Licht - Komm wir fliegen
TTITLE7=Susan Ebrahimi - Die Sonne scheint für mich
TTITLE8=Raffaele - Bella Donna
TTITLE9=Die Cappuccinos - Wenn Susanna heimlich weint
TTITLE10=Michael Holm - Schwarz - rot - gold
TTITLE11=Andrea Jürgens - Kleine Lügen
TTITLE12=Jens Bogner - Herzensangelegenheit
TTITLE13=Petra Frey - Der Sommer ist da
TTITLE14=Gerrit Winter - Atemlos
TTITLE15=Wencke Myhre - Eingeliebt - ausgeliebt
TTITLE16=Michael Heck - Komm mit mir nach Blue Hawaii
TTITLE17=Isabel Varell - Ich werd den Teufel tun
TTITLE18=Claus Marcus - Ich lebe (weil ich liebe)
TTITLE19=Veronika Fischer - Glückslied
EXTD=
EXTT0=
EXTT1=
EXTT2=
EXTT3=
EXTT4=
EXTT5=
EXTT6=
EXTT7=
EXTT8=
EXTT9=
EXTT10=
EXTT11=
EXTT12=
EXTT13=
EXTT14=
EXTT15=
EXTT16=
EXTT17=
EXTT18=
EXTT19=
PLAYORDER=
